<svg width="1721" height="1105" viewBox="0 0 1721 1105" fill="none" xmlns="http://www.w3.org/2000/svg">
<path d="M988.429 267H988.714L989 278.5L988.714 290H988.429L988 278.5L988.429 267Z" fill="#FFDA19"/>
<path d="M977 278.571V278.286L988.5 278L1000 278.286V278.571L988.5 279L977 278.571Z" fill="#FFDA19"/>
<path d="M938.857 278H939.429L940 298L939.429 318H938.857L938 298L938.857 278Z" fill="#FFDA19"/>
<path d="M919 298.143V297.571L939 297L959 297.571V298.143L939 299L919 298.143Z" fill="#FFDA19"/>
<path d="M1473.43 512H1473.71L1474 523.5L1473.71 535H1473.43L1473 523.5L1473.43 512Z" fill="#FFDA19"/>
<path d="M1462 523.571V523.286L1473.5 523L1485 523.286V523.571L1473.5 524L1462 523.571Z" fill="#FFDA19"/>
<path d="M1502.86 533H1503.43L1504 553L1503.43 573H1502.86L1502 553L1502.86 533Z" fill="#FFDA19"/>
<path d="M1483 553.143V552.571L1503 552L1523 552.571V553.143L1503 554L1483 553.143Z" fill="#FFDA19"/>
<mask id="mask0_168_66" style="mask-type:alpha" maskUnits="userSpaceOnUse" x="0" y="13" width="1721" height="996">
<rect y="13.9999" width="1721" height="995" rx="60" fill="#07082E"/>
</mask>
<g mask="url(#mask0_168_66)">
<circle cx="21.4417" cy="-121.559" r="484.63" transform="rotate(-20.6715 21.4417 -121.559)" stroke="#FFDA19" stroke-width="3"/>
<circle cx="225.466" cy="213.466" r="157.169" transform="rotate(-20.6715 225.466 213.466)" stroke="#FFDA19" stroke-width="3"/>
<path d="M652.519 121.2L652.897 121.245L651.428 136.505L649.204 151.672L648.826 151.626L650.105 136.344L652.519 121.2Z" fill="#FFDA19"/>
<path d="M635.542 134.673L635.588 134.295L650.847 135.763L666.015 137.987L665.969 138.365L650.687 137.086L635.542 134.673Z" fill="#FFDA19"/>
<path d="M651.346 135.961C916.014 -34.5449 996.397 -83.1217 1282.24 12.2467" stroke="#FFDA19"/>
<path d="M843.235 103.826L843.615 103.81L844.64 119.105L844.904 134.433L844.524 134.449L843.309 119.161L843.235 103.826Z" fill="#FFDA19"/>
<path d="M828.667 119.873L828.651 119.493L843.947 118.468L859.274 118.203L859.29 118.584L844.003 119.799L828.667 119.873Z" fill="#FFDA19"/>
<path d="M844.471 118.583C1078 -92.5758 1149.44 -153.542 1446.97 -105.776" stroke="#FFDA19"/>
</g>
<path d="M1515.79 165.516C1535.25 189.824 1547.8 215.861 1552.37 238.291C1556.95 260.75 1553.51 279.437 1541.23 289.271C1528.95 299.105 1509.96 298.381 1489.04 289.007C1468.16 279.645 1445.49 261.708 1426.02 237.4C1406.56 213.092 1394.01 187.054 1389.44 164.625C1384.86 142.166 1388.31 123.478 1400.59 113.645C1412.86 103.811 1431.85 104.535 1452.77 113.909C1473.66 123.271 1496.32 141.208 1515.79 165.516Z" stroke="#FFDA19"/>
<path d="M1515.98 168.059C1540.43 198.591 1556.2 231.302 1561.94 259.488C1567.69 287.703 1563.38 311.23 1547.9 323.622C1532.43 336.014 1508.53 335.084 1482.25 323.307C1456 311.542 1427.53 289.007 1403.08 258.474C1378.63 227.942 1362.86 195.231 1357.11 167.045C1351.37 138.83 1355.68 115.303 1371.16 102.911C1386.63 90.5184 1410.53 91.4488 1436.81 103.226C1463.06 114.991 1491.53 137.526 1515.98 168.059Z" stroke="#FFDA19"/>
<path d="M1521.2 170.373C1596.25 264.099 1585.05 397.714 1496.26 468.821C1407.47 539.927 1274.63 521.655 1199.58 427.928C1124.52 334.202 1135.72 200.587 1224.51 129.481C1313.31 58.3742 1446.14 76.6468 1521.2 170.373Z" stroke="#FFDA19"/>
<circle cx="1495.55" cy="167.547" r="76.7458" transform="rotate(-4.08077 1495.55 167.547)" fill="#07082E" stroke="#FFDA19"/>
<circle cx="1459.64" cy="118.905" r="8.22385" transform="rotate(-4.08077 1459.64 118.905)" stroke="#FFDA19"/>
<circle cx="1445.58" cy="131.357" r="2.19646" transform="rotate(-4.08077 1445.58 131.357)" stroke="#FFDA19"/>
<path d="M1556.28 121.274C1558.65 124.092 1559.48 128.157 1558.73 133.237C1557.98 138.317 1555.66 144.312 1551.9 150.881C1548.14 157.45 1543.02 164.464 1536.82 171.521C1530.63 178.579 1523.48 185.543 1515.79 192.016C1508.1 198.488 1500.02 204.342 1492.01 209.243C1484 214.145 1476.21 217.997 1469.1 220.582C1461.99 223.166 1455.68 224.431 1450.55 224.305C1445.42 224.179 1441.55 222.664 1439.18 219.846" stroke="#FFDA19"/>
<circle cx="932" cy="905" r="199.5" stroke="#FFDA19"/>
<circle cx="1213" cy="905" r="199.5" stroke="#FFDA19"/>
<circle cx="1492" cy="905" r="199.5" stroke="#FFDA19"/>
</svg>
