<svg width="1700" height="1275" viewBox="0 0 1700 1275" fill="none" xmlns="http://www.w3.org/2000/svg">
<rect width="1700" height="1275" fill="#07082E"/>
<rect width="699.361" height="1275" fill="white"/>
<path d="M976.368 280.082H976.65L976.932 292.1L976.65 304.119H976.368L975.944 292.1L976.368 280.082Z" fill="#FFDA19"/>
<path d="M965.078 292.175V291.876L976.438 291.578L987.798 291.876V292.175L976.438 292.623L965.078 292.175Z" fill="#FFDA19"/>
<path d="M927.401 291.578H927.966L928.53 312.48L927.966 333.381H927.401L926.554 312.48L927.401 291.578Z" fill="#FFDA19"/>
<path d="M907.786 312.629V312.032L927.542 311.434L947.298 312.032V312.629L927.542 313.525L907.786 312.629Z" fill="#FFDA19"/>
<path d="M1455.45 536.127H1455.73L1456.01 548.145L1455.73 560.164H1455.45L1455.03 548.145L1455.45 536.127Z" fill="#FFDA19"/>
<path d="M1444.16 548.22V547.921L1455.52 547.623L1466.88 547.921V548.22L1455.52 548.668L1444.16 548.22Z" fill="#FFDA19"/>
<path d="M1484.52 558.074H1485.08L1485.65 578.975L1485.08 599.877H1484.52L1483.67 578.975L1484.52 558.074Z" fill="#FFDA19"/>
<path d="M1464.9 579.125V578.528L1484.66 577.93L1504.42 578.528V579.125L1484.66 580.021L1464.9 579.125Z" fill="#FFDA19"/>
<mask id="mask0_175_71" style="mask-type:alpha" maskUnits="userSpaceOnUse" x="0" y="2" width="1700" height="1040">
<rect y="2.09009" width="1700" height="1039.86" rx="60" fill="#07082E"/>
</mask>
<g mask="url(#mask0_175_71)">
<path d="M469.07 -318.368C562.432 -56.57 437.499 235.625 190.191 334.345C-57.117 433.066 -333.348 301.008 -426.71 39.2096C-520.072 -222.589 -395.139 -514.784 -147.831 -613.504C99.477 -712.225 375.707 -580.167 469.07 -318.368Z" stroke="#FFDA19" stroke-width="3"/>
<path d="M367.964 152.568C398.263 237.53 357.703 332.283 277.539 364.283C197.375 396.283 107.764 353.491 77.4651 268.529C47.1661 183.568 87.726 88.8146 167.89 56.8146C248.054 24.8146 337.665 67.6059 367.964 152.568Z" stroke="#FFDA19" stroke-width="3"/>
<path d="M644.557 114.122L644.93 114.17L643.48 130.117L641.283 145.969L640.909 145.921L642.173 129.95L644.557 114.122Z" fill="#FFDA19"/>
<path d="M627.788 128.203L627.833 127.808L642.906 129.342L657.888 131.666L657.843 132.061L642.747 130.725L627.788 128.203Z" fill="#FFDA19"/>
<path d="M643.399 129.55C904.837 -48.6431 984.239 -99.4099 1266.6 0.257972" stroke="#FFDA19"/>
<path d="M832.945 95.9661L833.321 95.9494L834.334 111.934L834.595 127.953L834.219 127.969L833.019 111.993L832.945 95.9661Z" fill="#FFDA19"/>
<path d="M818.556 112.736L818.54 112.339L833.649 111.267L848.789 110.991L848.805 111.389L833.704 112.659L818.556 112.736Z" fill="#FFDA19"/>
<path d="M834.167 111.387C1064.84 -109.29 1135.41 -173.005 1429.31 -123.086" stroke="#FFDA19"/>
</g>
<path d="M1497.3 174.019C1516.53 199.425 1528.92 226.639 1533.44 250.082C1537.96 273.558 1534.56 293.089 1522.43 303.366C1510.3 313.643 1491.54 312.888 1470.88 303.089C1450.24 293.304 1427.85 274.556 1408.62 249.151C1389.39 223.745 1376.99 196.531 1372.48 173.088C1367.96 149.612 1371.36 130.081 1383.49 119.804C1395.62 109.527 1414.38 110.282 1435.04 120.081C1455.68 129.866 1478.07 148.614 1497.3 174.019Z" stroke="#FFDA19"/>
<path d="M1497.49 176.677C1521.64 208.588 1537.22 242.775 1542.89 272.235C1548.57 301.726 1544.31 326.315 1529.02 339.266C1513.74 352.217 1490.12 351.245 1464.17 338.936C1438.23 326.639 1410.11 303.086 1385.95 271.175C1361.8 239.264 1346.22 205.077 1340.55 175.617C1334.87 146.126 1339.13 121.537 1354.42 108.586C1369.7 95.6352 1393.32 96.6066 1419.27 108.916C1445.21 121.212 1473.33 144.766 1497.49 176.677Z" stroke="#FFDA19"/>
<path d="M1502.64 179.095C1576.79 277.056 1565.72 416.7 1478.01 491.01C1390.3 565.321 1259.08 546.23 1184.93 448.269C1110.79 350.308 1121.86 210.664 1209.56 136.354C1297.27 62.0432 1428.49 81.1345 1502.64 179.095Z" stroke="#FFDA19"/>
<path d="M1552.91 170.438C1555.89 214.661 1524.43 253.02 1482.69 256.17C1440.96 259.32 1404.67 226.075 1401.69 181.852C1398.7 137.629 1430.17 99.2705 1471.9 96.1205C1513.63 92.9704 1549.93 126.215 1552.91 170.438Z" fill="#07082E" stroke="#FFDA19"/>
<path d="M1449.92 124.699C1450.24 129.473 1446.85 133.57 1442.41 133.906C1437.96 134.241 1434.05 130.695 1433.73 125.922C1433.41 121.148 1436.8 117.051 1441.25 116.715C1445.69 116.38 1449.6 119.926 1449.92 124.699Z" stroke="#FFDA19"/>
<path d="M1430.1 138.161C1430.18 139.465 1429.26 140.548 1428.09 140.636C1426.93 140.724 1425.87 139.79 1425.78 138.487C1425.69 137.183 1426.62 136.1 1427.78 136.012C1428.95 135.924 1430.01 136.858 1430.1 138.161Z" stroke="#FFDA19"/>
<path d="M1537.29 127.787C1539.63 130.731 1540.46 134.979 1539.71 140.288C1538.97 145.597 1536.68 151.863 1532.96 158.728C1529.25 165.593 1524.19 172.923 1518.07 180.299C1511.95 187.675 1504.89 194.953 1497.29 201.717C1489.7 208.481 1481.72 214.599 1473.8 219.721C1465.89 224.844 1458.2 228.87 1451.17 231.571C1444.15 234.272 1437.92 235.594 1432.85 235.462C1427.78 235.33 1423.96 233.747 1421.62 230.802" stroke="#FFDA19"/>
<path d="M1117.69 946.844C1117.69 1062.03 1029.43 1155.36 920.627 1155.36C811.821 1155.36 723.568 1062.03 723.568 946.844C723.568 831.657 811.821 738.328 920.627 738.328C1029.43 738.328 1117.69 831.657 1117.69 946.844Z" stroke="#FFDA19"/>
<path d="M1395.26 946.844C1395.26 1062.03 1307.01 1155.36 1198.2 1155.36C1089.39 1155.36 1001.14 1062.03 1001.14 946.844C1001.14 831.657 1089.39 738.328 1198.2 738.328C1307.01 738.328 1395.26 831.657 1395.26 946.844Z" stroke="#FFDA19"/>
<path d="M1670.85 946.844C1670.85 1062.03 1582.6 1155.36 1473.79 1155.36C1364.99 1155.36 1276.73 1062.03 1276.73 946.844C1276.73 831.657 1364.99 738.328 1473.79 738.328C1582.6 738.328 1670.85 831.657 1670.85 946.844Z" stroke="#FFDA19"/>
</svg>
