<svg width="428" height="566" viewBox="0 0 428 566" fill="none" xmlns="http://www.w3.org/2000/svg">
<path d="M0 0H428C428 456.402 0 323.083 0 566V474.412V0Z" fill="#07082E"/>
<circle cx="162" cy="158" r="124.5" stroke="#FFDA19"/>
<circle cx="108" cy="313" r="38.5" stroke="#FFDA19"/>
<circle cx="92.0819" cy="64.0791" r="289.5" transform="rotate(36.5291 92.0819 64.0791)" stroke="#FFDA19"/>
<path d="M266.536 115.268C268.341 120.053 267.275 125.741 263.644 131.992C260.016 138.239 253.865 144.977 245.649 151.796C229.221 165.432 204.624 179.321 175.751 190.215C146.878 201.109 119.237 206.929 97.8955 207.544C87.2224 207.851 78.154 206.856 71.3036 204.563C64.4486 202.268 59.8904 198.701 58.085 193.916C56.2796 189.131 57.3458 183.443 60.9764 177.191C64.6045 170.944 70.7554 164.207 78.9716 157.388C95.4001 143.752 119.997 129.862 148.87 118.969C177.742 108.075 205.384 102.255 226.725 101.64C237.398 101.333 246.467 102.328 253.317 104.621C260.172 106.916 264.73 110.482 266.536 115.268Z" stroke="#FFDA19"/>
</svg>
