<svg width="180" height="23" viewBox="0 0 180 23" fill="none" xmlns="http://www.w3.org/2000/svg">
<path d="M116.39 19H117.065L117.538 18.115L117.178 16.465H116.39V19ZM116.668 13.3075C116.668 13.8525 116.823 14.285 117.133 14.605C117.443 14.925 118.008 15.2075 118.828 15.4525C119.643 15.6925 120.21 15.915 120.53 16.12C120.855 16.325 121.018 16.6375 121.018 17.0575C121.018 17.4725 120.86 17.795 120.545 18.025C120.235 18.255 119.83 18.37 119.33 18.37C118.855 18.37 118.42 18.25 118.025 18.01C117.63 17.765 117.38 17.4875 117.275 17.1775L116.593 17.6275C116.953 18.0875 117.348 18.4575 117.778 18.7375C118.208 19.0125 118.785 19.15 119.51 19.15C120.31 19.15 120.953 18.925 121.438 18.475C121.923 18.025 122.165 17.4825 122.165 16.8475C122.165 16.1275 121.933 15.595 121.468 15.25C121.008 14.9 120.395 14.615 119.63 14.395C118.845 14.175 118.343 13.9775 118.123 13.8025C117.908 13.6275 117.8 13.385 117.8 13.075C117.8 12.78 117.903 12.54 118.108 12.355C118.318 12.165 118.648 12.07 119.098 12.07C119.448 12.07 119.788 12.145 120.118 12.295C120.453 12.44 120.703 12.5825 120.868 12.7225L121.22 12.13C121.015 11.925 120.75 11.7425 120.425 11.5825C120.105 11.4225 119.653 11.3425 119.068 11.3425C118.253 11.3425 117.648 11.535 117.253 11.92C116.863 12.3 116.668 12.7625 116.668 13.3075ZM120.44 12.3775L120.74 13.7275H121.528V11.5075H120.853L120.44 12.3775ZM122.999 15.25C122.999 16.415 123.361 17.36 124.086 18.085C124.811 18.805 125.754 19.165 126.914 19.165C128.074 19.165 129.006 18.7775 129.711 18.0025C130.421 17.2225 130.776 16.29 130.776 15.205C130.776 14.05 130.416 13.1175 129.696 12.4075C128.976 11.6975 128.034 11.3425 126.869 11.3425C125.714 11.3425 124.779 11.7225 124.064 12.4825C123.354 13.2425 122.999 14.165 122.999 15.25ZM124.349 15.1C124.344 14.195 124.559 13.485 124.994 12.97C125.429 12.455 126.054 12.1975 126.869 12.1975C127.629 12.1975 128.236 12.48 128.691 13.045C129.151 13.61 129.381 14.3325 129.381 15.2125C129.381 16.1625 129.161 16.9225 128.721 17.4925C128.286 18.0625 127.664 18.3475 126.854 18.3475C126.104 18.3475 125.499 18.035 125.039 17.41C124.584 16.785 124.354 16.015 124.349 15.1ZM131.819 19H135.479V18.4075L134.302 18.145L134.287 15.0475L134.302 7.7425L134.129 7.51L133.859 7.495L131.639 7.75V8.4475L133.027 8.6725L133.042 15.0475L133.027 18.145L131.819 18.4075V19ZM136.4 12.46L137.503 12.685L137.54 15.4525C137.54 15.4525 137.533 15.63 137.518 15.985C137.508 16.335 137.503 16.695 137.503 17.065C137.503 17.715 137.695 18.2275 138.08 18.6025C138.47 18.9725 139.048 19.1575 139.813 19.1575C140.423 19.1575 141 18.9925 141.545 18.6625C142.09 18.3325 142.475 17.9225 142.7 17.4325L142.445 16.975C142.19 17.37 141.858 17.6675 141.448 17.8675C141.038 18.0625 140.633 18.16 140.233 18.16C139.763 18.16 139.4 18.025 139.145 17.755C138.89 17.485 138.763 17.18 138.763 16.84V15.4525L138.778 11.7775L138.59 11.5075H138.328L136.4 11.7625V12.46ZM141.38 12.46L142.408 12.685L142.423 15.4525L142.408 17.875L142.595 18.7975L142.858 19L144.793 18.745V18.1225L143.683 17.8975L143.668 15.4525L143.683 11.7775L143.495 11.5075H143.233L141.38 11.7625V12.46ZM145.402 12.46L146.617 12.55V15.055L146.565 17.7775C146.565 18.2275 146.645 18.555 146.805 18.76C146.97 18.96 147.245 19.06 147.63 19.06L149.377 18.7825V18.19H148.312L147.945 17.7625L147.877 15.055L148.005 10.4725L147.765 10.1425H147.412C147.247 10.4575 147.017 10.795 146.722 11.155C146.432 11.515 145.992 11.765 145.402 11.905V12.46ZM147.592 12.46H149.55V11.7025H147.622L147.592 12.46ZM150.445 19H154.15V18.4075L152.972 18.145L152.957 15.055L153.01 11.8L152.837 11.5075H152.485L150.407 11.7625V12.46L151.66 12.685L151.712 15.055L151.697 18.145L150.445 18.4075V19ZM151.352 8.98C151.352 9.25 151.437 9.47 151.607 9.64C151.782 9.81 152.012 9.895 152.297 9.895C152.602 9.895 152.835 9.815 152.995 9.655C153.16 9.495 153.242 9.27 153.242 8.98C153.242 8.705 153.155 8.4825 152.98 8.3125C152.81 8.1425 152.582 8.0575 152.297 8.0575C151.992 8.0575 151.757 8.1375 151.592 8.2975C151.432 8.4575 151.352 8.685 151.352 8.98ZM155.123 15.25C155.123 16.415 155.485 17.36 156.21 18.085C156.935 18.805 157.878 19.165 159.038 19.165C160.198 19.165 161.13 18.7775 161.835 18.0025C162.545 17.2225 162.9 16.29 162.9 15.205C162.9 14.05 162.54 13.1175 161.82 12.4075C161.1 11.6975 160.158 11.3425 158.993 11.3425C157.838 11.3425 156.903 11.7225 156.188 12.4825C155.478 13.2425 155.123 14.165 155.123 15.25ZM156.473 15.1C156.468 14.195 156.683 13.485 157.118 12.97C157.553 12.455 158.178 12.1975 158.993 12.1975C159.753 12.1975 160.36 12.48 160.815 13.045C161.275 13.61 161.505 14.3325 161.505 15.2125C161.505 16.1625 161.285 16.9225 160.845 17.4925C160.41 18.0625 159.788 18.3475 158.978 18.3475C158.228 18.3475 157.623 18.035 157.163 17.41C156.708 16.785 156.478 16.015 156.473 15.1ZM163.943 19H167.356V18.4075L166.321 18.145L166.306 15.0475L166.321 12.475L166.133 11.71L165.878 11.5075L163.943 11.7625V12.46L165.046 12.685L165.061 15.0475L165.046 18.145L163.943 18.4075V19ZM166.283 13.6C166.503 13.25 166.813 12.9675 167.213 12.7525C167.613 12.5325 168.041 12.4225 168.496 12.4225C168.941 12.4225 169.296 12.5375 169.561 12.7675C169.831 12.9975 169.966 13.32 169.966 13.735V15.0475L169.951 18.145L168.773 18.4075V19H172.336V18.4075L171.226 18.145L171.188 15.055C171.188 15.055 171.193 14.8775 171.203 14.5225C171.218 14.1675 171.226 13.805 171.226 13.435C171.226 12.785 171.033 12.275 170.648 11.905C170.263 11.535 169.686 11.35 168.916 11.35C168.306 11.35 167.728 11.515 167.183 11.845C166.638 12.175 166.253 12.585 166.028 13.075L166.283 13.6ZM173.211 19H173.886L174.359 18.115L173.999 16.465H173.211V19ZM173.489 13.3075C173.489 13.8525 173.644 14.285 173.954 14.605C174.264 14.925 174.829 15.2075 175.649 15.4525C176.464 15.6925 177.031 15.915 177.351 16.12C177.676 16.325 177.839 16.6375 177.839 17.0575C177.839 17.4725 177.681 17.795 177.366 18.025C177.056 18.255 176.651 18.37 176.151 18.37C175.676 18.37 175.241 18.25 174.846 18.01C174.451 17.765 174.201 17.4875 174.096 17.1775L173.414 17.6275C173.774 18.0875 174.169 18.4575 174.599 18.7375C175.029 19.0125 175.606 19.15 176.331 19.15C177.131 19.15 177.774 18.925 178.259 18.475C178.744 18.025 178.986 17.4825 178.986 16.8475C178.986 16.1275 178.754 15.595 178.289 15.25C177.829 14.9 177.216 14.615 176.451 14.395C175.666 14.175 175.164 13.9775 174.944 13.8025C174.729 13.6275 174.621 13.385 174.621 13.075C174.621 12.78 174.724 12.54 174.929 12.355C175.139 12.165 175.469 12.07 175.919 12.07C176.269 12.07 176.609 12.145 176.939 12.295C177.274 12.44 177.524 12.5825 177.689 12.7225L178.041 12.13C177.836 11.925 177.571 11.7425 177.246 11.5825C176.926 11.4225 176.474 11.3425 175.889 11.3425C175.074 11.3425 174.469 11.535 174.074 11.92C173.684 12.3 173.489 12.7625 173.489 13.3075ZM177.261 12.3775L177.561 13.7275H178.349V11.5075H177.674L177.261 12.3775Z" fill="white"/>
<circle cx="109.5" cy="17.5" r="1.5" fill="#FFDA19"/>
<path d="M0.78 11.55C0.78 13.95 1.5 15.8433 2.94 17.23C4.38667 18.61 6.18333 19.3 8.33 19.3C9.50333 19.3 10.5933 19.0667 11.6 18.6C12.6067 18.1267 13.44 17.4467 14.1 16.56L13.22 15.8C12.7867 16.4267 12.1767 16.95 11.39 17.37C10.6033 17.7833 9.65 17.99 8.53 17.99C6.82333 17.99 5.42667 17.4067 4.34 16.24C3.25333 15.0733 2.70333 13.41 2.69 11.25C2.67667 9.25667 3.17667 7.72 4.19 6.64C5.21 5.55333 6.60333 5.01 8.37 5.01C9.06333 5.01 9.73 5.11333 10.37 5.32C11.0167 5.52667 11.5567 5.82667 11.99 6.22L13.05 5.13C12.4567 4.70333 11.7433 4.37667 10.91 4.15C10.0833 3.91667 9.22667 3.8 8.34 3.8C6.14 3.8 4.33 4.54667 2.91 6.04C1.49 7.52667 0.78 9.36333 0.78 11.55ZM11.47 5.78L12.09 8.65H13.14V4.13H12.27L11.47 5.78ZM14.9402 11.63C14.9402 13.91 15.6368 15.76 17.0302 17.18C18.4235 18.5933 20.1968 19.3 22.3502 19.3C24.5502 19.3 26.3202 18.55 27.6602 17.05C29.0068 15.5433 29.6802 13.6867 29.6802 11.48C29.6802 9.16667 29.0002 7.31 27.6402 5.91C26.2868 4.50333 24.5102 3.8 22.3102 3.8C20.1035 3.8 18.3235 4.55 16.9702 6.05C15.6168 7.54333 14.9402 9.40333 14.9402 11.63ZM16.8502 11.28C16.8502 9.34 17.3202 7.82333 18.2602 6.73C19.2002 5.63667 20.5568 5.09 22.3302 5.09C23.9702 5.09 25.2868 5.69333 26.2802 6.9C27.2735 8.10667 27.7702 9.65333 27.7702 11.54C27.7702 13.6533 27.3035 15.2733 26.3702 16.4C25.4435 17.5267 24.0968 18.09 22.3302 18.09C20.7035 18.09 19.3835 17.46 18.3702 16.2C17.3568 14.9333 16.8502 13.2933 16.8502 11.28ZM31.2492 19H36.6092V18.08L34.4492 17.73L34.4292 11.47L34.4492 5.56L36.9492 11.58L39.8892 19.08H41.0992L44.0892 11.45L46.5492 5.6L46.5692 11.46L46.5492 17.73L44.2292 18.08V19H50.3792V18.08L48.3492 17.73L48.3292 11.46L48.3492 5.39L50.3792 5.05V4H45.7592L43.0092 10.95L40.7892 16.46L38.5092 10.87L35.7992 4H31.2492V5.05L33.3092 5.39L33.3292 11.47L33.3092 17.73L31.2492 18.08V19ZM51.9719 19H58.0219V18.08L55.8019 17.76L55.7819 11.36L55.8119 5.31L56.1419 5.09H57.9419C58.9885 5.09 59.7919 5.35333 60.3519 5.88C60.9185 6.40667 61.2019 7.2 61.2019 8.26C61.2019 9.42667 60.9085 10.33 60.3219 10.97C59.7419 11.61 58.8952 11.93 57.7819 11.93C57.1152 11.93 56.5919 11.9167 56.2119 11.89C55.8385 11.8567 55.4585 11.7967 55.0719 11.71L54.9819 12.69C55.2885 12.7433 55.7185 12.8067 56.2719 12.88C56.8252 12.9467 57.4485 12.98 58.1419 12.98C59.7352 12.98 60.9652 12.5367 61.8319 11.65C62.7052 10.7633 63.1419 9.63667 63.1419 8.27C63.1419 6.85667 62.7285 5.79333 61.9019 5.08C61.0819 4.36 59.8885 4 58.3219 4H51.9719V5.05L54.0019 5.39L54.0219 11.46L54.0019 17.71L51.9719 18.08V19ZM63.3628 19H68.4328V18.08L66.6228 17.78L67.8728 13.92L70.6928 6.44L73.6528 13.97L74.9528 17.77L73.2028 18.08V19H78.6528V18.08L76.9128 17.73L75.0728 13.05L71.6028 3.92H70.3828L66.8328 13.59L65.2128 17.73L63.3628 18.08V19ZM67.1328 14.43H74.6328L74.3428 13.32L71.0028 13.43L67.5228 13.33L67.1328 14.43ZM79.1984 19H84.5584V18.08L82.3684 17.73L82.3384 11.47L82.3584 5.85L85.7484 11.55L90.1384 19H91.3484L91.3784 11.46L91.3984 5.39L93.4584 5.05V4H88.0084V5.05L90.2784 5.39L90.3084 11.46L90.2884 15.79L87.1784 10.76L83.3884 4H79.1984V5.05L81.2484 5.39L81.2684 11.46L81.2484 17.73L79.1984 18.08V19ZM93.8302 5.05L95.4102 5.31L97.6702 9.23L99.5102 12.51L99.4902 17.73L97.3402 18.08V19H103.42V18.08L101.29 17.73L101.27 12.43L103.21 8.88L105.23 5.32L106.93 5.05V4H101.93V5.05L103.81 5.33L102.32 8.26L100.72 11.22L99.0702 8.47L97.4902 5.4L99.0202 5.05V4H93.8302V5.05Z" fill="white"/>
</svg>
