<svg width="151" height="32" viewBox="0 0 151 32" fill="none" xmlns="http://www.w3.org/2000/svg">
<path d="M52.4188 0.851767V27.9846H46.8408C45.7625 15.6838 42.8218 10.0122 33.1748 2.20642V27.2276H35.3662V27.9846H29.9077V27.2276H32.0991V0.851767H29.9077V0.0947571H38.0755C43.8686 6.33996 48.9546 10.7446 51.3431 20.0958V0.851767H49.1517V0.0947571H54.6102V0.851767H52.4188Z" fill="white"/>
<path d="M67.7138 13.1082L77.2361 0.637484H73.212V0H81.061V0.637484H78.4314L68.3114 13.7457C70.521 19.2003 71.561 21.4053 74.7266 27.9053L74.5273 28.6623H70.7423L71.061 27.9053C68.3114 21.9053 66.921 19.4996 64.6459 14.7019L57.8726 0.637484H56V0H68.7497V0.637484H62.1358L67.7138 13.1082Z" fill="white"/>
<path d="M3.22095 28.1838C3.42016 28.1838 8.40049 29.1798 12.1855 23.2035C15.9706 17.2271 19.7557 12.6451 26.1305 15.0357" stroke="white" stroke-width="0.7"/>
<path d="M14.759 1.36912C1.22883 13.2428 3.02176 28.1838 3.22097 28.1838" stroke="white" stroke-width="0.7"/>
<path d="M24.497 27.0284L14.8153 3.28216L14.1379 1.84782L14.5762 1.09081L16.648 0.891602L17.0863 1.84782L27.4454 25.7534L28.4016 27.9846H24.9353L24.497 27.0284Z" fill="white"/>
<path d="M87.39 29H88.065L88.5375 28.115L88.1775 26.465H87.39V29ZM87.6675 23.3075C87.6675 23.8525 87.8225 24.285 88.1325 24.605C88.4425 24.925 89.0075 25.2075 89.8275 25.4525C90.6425 25.6925 91.21 25.915 91.53 26.12C91.855 26.325 92.0175 26.6375 92.0175 27.0575C92.0175 27.4725 91.86 27.795 91.545 28.025C91.235 28.255 90.83 28.37 90.33 28.37C89.855 28.37 89.42 28.25 89.025 28.01C88.63 27.765 88.38 27.4875 88.275 27.1775L87.5925 27.6275C87.9525 28.0875 88.3475 28.4575 88.7775 28.7375C89.2075 29.0125 89.785 29.15 90.51 29.15C91.31 29.15 91.9525 28.925 92.4375 28.475C92.9225 28.025 93.165 27.4825 93.165 26.8475C93.165 26.1275 92.9325 25.595 92.4675 25.25C92.0075 24.9 91.395 24.615 90.63 24.395C89.845 24.175 89.3425 23.9775 89.1225 23.8025C88.9075 23.6275 88.8 23.385 88.8 23.075C88.8 22.78 88.9025 22.54 89.1075 22.355C89.3175 22.165 89.6475 22.07 90.0975 22.07C90.4475 22.07 90.7875 22.145 91.1175 22.295C91.4525 22.44 91.7025 22.5825 91.8675 22.7225L92.22 22.13C92.015 21.925 91.75 21.7425 91.425 21.5825C91.105 21.4225 90.6525 21.3425 90.0675 21.3425C89.2525 21.3425 88.6475 21.535 88.2525 21.92C87.8625 22.3 87.6675 22.7625 87.6675 23.3075ZM91.44 22.3775L91.74 23.7275H92.5275V21.5075H91.8525L91.44 22.3775ZM93.9986 25.25C93.9986 26.415 94.3611 27.36 95.0861 28.085C95.8111 28.805 96.7536 29.165 97.9136 29.165C99.0736 29.165 100.006 28.7775 100.711 28.0025C101.421 27.2225 101.776 26.29 101.776 25.205C101.776 24.05 101.416 23.1175 100.696 22.4075C99.9761 21.6975 99.0336 21.3425 97.8686 21.3425C96.7136 21.3425 95.7786 21.7225 95.0636 22.4825C94.3536 23.2425 93.9986 24.165 93.9986 25.25ZM95.3486 25.1C95.3436 24.195 95.5586 23.485 95.9936 22.97C96.4286 22.455 97.0536 22.1975 97.8686 22.1975C98.6286 22.1975 99.2361 22.48 99.6911 23.045C100.151 23.61 100.381 24.3325 100.381 25.2125C100.381 26.1625 100.161 26.9225 99.7211 27.4925C99.2861 28.0625 98.6636 28.3475 97.8536 28.3475C97.1036 28.3475 96.4986 28.035 96.0386 27.41C95.5836 26.785 95.3536 26.015 95.3486 25.1ZM102.819 29H106.479V28.4075L105.302 28.145L105.287 25.0475L105.302 17.7425L105.129 17.51L104.859 17.495L102.639 17.75V18.4475L104.027 18.6725L104.042 25.0475L104.027 28.145L102.819 28.4075V29ZM107.4 22.46L108.503 22.685L108.54 25.4525C108.54 25.4525 108.533 25.63 108.518 25.985C108.508 26.335 108.503 26.695 108.503 27.065C108.503 27.715 108.695 28.2275 109.08 28.6025C109.47 28.9725 110.048 29.1575 110.813 29.1575C111.423 29.1575 112 28.9925 112.545 28.6625C113.09 28.3325 113.475 27.9225 113.7 27.4325L113.445 26.975C113.19 27.37 112.858 27.6675 112.448 27.8675C112.038 28.0625 111.633 28.16 111.233 28.16C110.763 28.16 110.4 28.025 110.145 27.755C109.89 27.485 109.763 27.18 109.763 26.84V25.4525L109.778 21.7775L109.59 21.5075H109.328L107.4 21.7625V22.46ZM112.38 22.46L113.408 22.685L113.423 25.4525L113.408 27.875L113.595 28.7975L113.858 29L115.793 28.745V28.1225L114.683 27.8975L114.668 25.4525L114.683 21.7775L114.495 21.5075H114.233L112.38 21.7625V22.46ZM116.402 22.46L117.617 22.55V25.055L117.565 27.7775C117.565 28.2275 117.645 28.555 117.805 28.76C117.97 28.96 118.245 29.06 118.63 29.06L120.377 28.7825V28.19H119.312L118.945 27.7625L118.877 25.055L119.005 20.4725L118.765 20.1425H118.412C118.247 20.4575 118.017 20.795 117.722 21.155C117.432 21.515 116.992 21.765 116.402 21.905V22.46ZM118.592 22.46H120.55V21.7025H118.622L118.592 22.46ZM121.445 29H125.15V28.4075L123.972 28.145L123.957 25.055L124.01 21.8L123.837 21.5075H123.485L121.407 21.7625V22.46L122.66 22.685L122.712 25.055L122.697 28.145L121.445 28.4075V29ZM122.352 18.98C122.352 19.25 122.437 19.47 122.607 19.64C122.782 19.81 123.012 19.895 123.297 19.895C123.602 19.895 123.835 19.815 123.995 19.655C124.16 19.495 124.242 19.27 124.242 18.98C124.242 18.705 124.155 18.4825 123.98 18.3125C123.81 18.1425 123.582 18.0575 123.297 18.0575C122.992 18.0575 122.757 18.1375 122.592 18.2975C122.432 18.4575 122.352 18.685 122.352 18.98ZM126.123 25.25C126.123 26.415 126.485 27.36 127.21 28.085C127.935 28.805 128.878 29.165 130.038 29.165C131.198 29.165 132.13 28.7775 132.835 28.0025C133.545 27.2225 133.9 26.29 133.9 25.205C133.9 24.05 133.54 23.1175 132.82 22.4075C132.1 21.6975 131.158 21.3425 129.993 21.3425C128.838 21.3425 127.903 21.7225 127.188 22.4825C126.478 23.2425 126.123 24.165 126.123 25.25ZM127.473 25.1C127.468 24.195 127.683 23.485 128.118 22.97C128.553 22.455 129.178 22.1975 129.993 22.1975C130.753 22.1975 131.36 22.48 131.815 23.045C132.275 23.61 132.505 24.3325 132.505 25.2125C132.505 26.1625 132.285 26.9225 131.845 27.4925C131.41 28.0625 130.788 28.3475 129.978 28.3475C129.228 28.3475 128.623 28.035 128.163 27.41C127.708 26.785 127.478 26.015 127.473 25.1ZM134.943 29H138.356V28.4075L137.321 28.145L137.306 25.0475L137.321 22.475L137.133 21.71L136.878 21.5075L134.943 21.7625V22.46L136.046 22.685L136.061 25.0475L136.046 28.145L134.943 28.4075V29ZM137.283 23.6C137.503 23.25 137.813 22.9675 138.213 22.7525C138.613 22.5325 139.041 22.4225 139.496 22.4225C139.941 22.4225 140.296 22.5375 140.561 22.7675C140.831 22.9975 140.966 23.32 140.966 23.735V25.0475L140.951 28.145L139.773 28.4075V29H143.336V28.4075L142.226 28.145L142.188 25.055C142.188 25.055 142.193 24.8775 142.203 24.5225C142.218 24.1675 142.226 23.805 142.226 23.435C142.226 22.785 142.033 22.275 141.648 21.905C141.263 21.535 140.686 21.35 139.916 21.35C139.306 21.35 138.728 21.515 138.183 21.845C137.638 22.175 137.253 22.585 137.028 23.075L137.283 23.6ZM144.211 29H144.886L145.359 28.115L144.999 26.465H144.211V29ZM144.489 23.3075C144.489 23.8525 144.644 24.285 144.954 24.605C145.264 24.925 145.829 25.2075 146.649 25.4525C147.464 25.6925 148.031 25.915 148.351 26.12C148.676 26.325 148.839 26.6375 148.839 27.0575C148.839 27.4725 148.681 27.795 148.366 28.025C148.056 28.255 147.651 28.37 147.151 28.37C146.676 28.37 146.241 28.25 145.846 28.01C145.451 27.765 145.201 27.4875 145.096 27.1775L144.414 27.6275C144.774 28.0875 145.169 28.4575 145.599 28.7375C146.029 29.0125 146.606 29.15 147.331 29.15C148.131 29.15 148.774 28.925 149.259 28.475C149.744 28.025 149.986 27.4825 149.986 26.8475C149.986 26.1275 149.754 25.595 149.289 25.25C148.829 24.9 148.216 24.615 147.451 24.395C146.666 24.175 146.164 23.9775 145.944 23.8025C145.729 23.6275 145.621 23.385 145.621 23.075C145.621 22.78 145.724 22.54 145.929 22.355C146.139 22.165 146.469 22.07 146.919 22.07C147.269 22.07 147.609 22.145 147.939 22.295C148.274 22.44 148.524 22.5825 148.689 22.7225L149.041 22.13C148.836 21.925 148.571 21.7425 148.246 21.5825C147.926 21.4225 147.474 21.3425 146.889 21.3425C146.074 21.3425 145.469 21.535 145.074 21.92C144.684 22.3 144.489 22.7625 144.489 23.3075ZM148.261 22.3775L148.561 23.7275H149.349V21.5075H148.674L148.261 22.3775Z" fill="white"/>
<circle cx="80.5" cy="27.5" r="1.5" fill="#FFDA19"/>
</svg>
