<svg width="40" height="40" viewBox="0 0 40 40" fill="none" xmlns="http://www.w3.org/2000/svg">
<path d="M22.8633 17.5467C22.8633 18.8667 22.4167 20.595 21.7233 21.95C20.0417 25.25 16.6183 25.2283 16.6183 21.7167C16.6183 20.4067 17.0683 18.7183 17.7633 17.4167C19.465 14.2083 22.8633 14.71 22.8633 17.5467ZM40 20C40 31.045 31.045 40 20 40C8.955 40 0 31.045 0 20C0 8.955 8.955 0 20 0C31.045 0 40 8.955 40 20ZM31.6667 18.01C31.6667 12.6 27.2817 8.675 21.24 8.675C12.9617 8.675 8.33333 13.9233 8.33333 20.4633C8.33333 26.5833 12.445 31.325 20.04 31.325C24.24 31.325 26.9133 30.115 28.5767 29.1783L27.4317 27.5267C25.7283 28.515 23.68 29.42 20.3383 29.42C14.6233 29.42 10.7833 25.755 10.7833 20.2983C10.7833 10.775 21.4517 9.035 26.14 11.8467C30.5133 14.5833 30.3467 21.1433 27.11 23.6517C25.3867 25.0283 23.445 24.9833 24.075 22.3917C24.075 22.3917 26.095 14.91 26.3317 14.1H24.0583L23.6067 15.6867C23.1433 14.3783 22.035 13.5283 20.4217 13.5283C17.0583 13.5283 14.2183 17.1783 14.2183 21.5C14.2183 24.3833 15.74 26.1733 18.185 26.1733C20.3233 26.1733 21.435 24.9633 22.125 23.885C21.625 28.715 31.6667 26.48 31.6667 18.01Z" fill="#FFDA19"/>
</svg>
