<svg width="54" height="54" viewBox="0 0 54 54" fill="none" xmlns="http://www.w3.org/2000/svg">
<ellipse cx="26.9999" cy="26.6342" rx="26.6667" ry="26.6342" fill="#FFDA19"/>
<g clip-path="url(#clip0_246_198)">
<path d="M46.3333 16.0406C45.0455 16.6123 43.6616 16.9973 42.2091 17.1708C43.6922 16.2827 44.8312 14.8754 45.3664 13.1983C43.9795 14.0208 42.4424 14.6188 40.8062 14.941C39.498 13.5454 37.6299 12.6733 35.5649 12.6733C30.9289 12.6733 27.5222 16.9988 28.5693 21.489C22.6033 21.19 17.3124 18.3317 13.7701 13.9873C11.8889 17.2146 12.7945 21.4365 15.9912 23.5744C14.8158 23.5365 13.7074 23.2142 12.7405 22.676C12.6618 26.0025 15.0462 29.1146 18.4995 29.8073C17.4889 30.0815 16.382 30.1456 15.2562 29.9298C16.1691 32.7823 18.8203 34.8575 21.9645 34.9158C18.9458 37.2827 15.1424 38.34 11.3333 37.8908C14.511 39.9281 18.2866 41.1167 22.3408 41.1167C35.6728 41.1167 43.2051 29.8569 42.7501 19.7579C44.153 18.7444 45.3708 17.48 46.3333 16.0406Z" fill="#07082E"/>
</g>
<defs>
<clipPath id="clip0_246_198">
<rect width="35" height="35" fill="white" transform="translate(11.3333 9.39502)"/>
</clipPath>
</defs>
</svg>
