<svg width="110" height="118" viewBox="0 0 110 118" fill="none" xmlns="http://www.w3.org/2000/svg">
<rect x="20" y="27" width="71" height="63" fill="#07082E"/>
<path d="M55 0C24.6262 0 0 26.4173 0 59C0 91.5828 24.6262 118 55 118C85.3738 118 110 91.5828 110 59C110 26.4173 85.3738 0 55 0ZM25.7904 79.6451C43.2483 81.1938 37.0013 61.3059 53.1529 61.1142L60.1471 67.378C61.8933 89.9947 36.1121 95.0392 25.7904 79.6451ZM63.8 62.9481L56.7004 56.5908C58.795 45.8725 65.1979 35.9998 71.6742 29.5L87.0833 43.2863C82.3121 51.33 73.2279 58.7935 63.8 62.9481Z" fill="#FFDA19"/>
</svg>
