<svg width="110" height="109" viewBox="0 0 110 109" fill="none" xmlns="http://www.w3.org/2000/svg">
<g clip-path="url(#clip0_204_68)">
<rect x="6" y="28" width="99" height="55" fill="#07082E"/>
<path d="M87.0833 0H22.9167C10.2621 0 0 10.0849 0 22.5209V85.5796C0 98.0157 10.2621 108.101 22.9167 108.101H87.0833C99.7425 108.101 110 98.0157 110 85.5796V22.5209C110 10.0849 99.7425 0 87.0833 0ZM50.4167 45.9382L33.7333 54.0503L50.4167 62.1398V72.067L22.9167 58.8472V49.2488L50.4167 36.0335V45.9382V45.9382ZM87.0833 58.8472L59.5833 72.067V62.1398L76.2667 54.0503L59.5833 45.9382V36.0335L87.0833 49.2533V58.8472V58.8472Z" fill="#FFDA19"/>
</g>
<defs>
<clipPath id="clip0_204_68">
<rect width="110" height="108.101" fill="white"/>
</clipPath>
</defs>
</svg>
