<svg width="111" height="109" viewBox="0 0 111 109" fill="none" xmlns="http://www.w3.org/2000/svg">
<g clip-path="url(#clip0_24_65)">
<path d="M87.4744 0H23.3078C10.6532 0 0.391113 10.0849 0.391113 22.5209V85.5796C0.391113 98.0157 10.6532 108.101 23.3078 108.101H87.4744C100.134 108.101 110.391 98.0157 110.391 85.5796V22.5209C110.391 10.0849 100.134 0 87.4744 0ZM50.8078 45.9382L34.1244 54.0503L50.8078 62.1398V72.067L23.3078 58.8472V49.2488L50.8078 36.0335V45.9382V45.9382ZM87.4744 58.8472L59.9744 72.067V62.1398L76.6578 54.0503L59.9744 45.9382V36.0335L87.4744 49.2533V58.8472V58.8472Z" fill="#FFDA19"/>
</g>
<defs>
<clipPath id="clip0_24_65">
<rect width="110" height="108.101" fill="white" transform="translate(0.391113)"/>
</clipPath>
</defs>
</svg>
