<svg width="110" height="110" viewBox="0 0 110 110" fill="none" xmlns="http://www.w3.org/2000/svg">
<path d="M55 0C24.6262 0 0 24.6262 0 55C0 85.3738 24.6262 110 55 110C85.3738 110 110 85.3738 110 55C110 24.6262 85.3738 0 55 0ZM25.7904 74.2454C43.2483 75.6892 37.0013 57.1496 53.1529 56.9708L60.1471 62.81C61.8933 83.8933 36.1121 88.5958 25.7904 74.2454ZM63.8 58.6804L56.7004 52.7542C58.795 42.7625 65.1979 33.5592 71.6742 27.5L87.0833 40.3517C82.3121 47.85 73.2279 54.8075 63.8 58.6804Z" fill="#FFDA19"/>
</svg>
