<svg width="720" height="1166" viewBox="0 0 720 1166" fill="none" xmlns="http://www.w3.org/2000/svg">
<mask id="mask0_232_129" style="mask-type:alpha" maskUnits="userSpaceOnUse" x="0" y="0" width="720" height="1166">
<rect x="0.5" y="0.5" width="719" height="1165" rx="39.5" fill="white" stroke="#BFBFBF"/>
</mask>
<g mask="url(#mask0_232_129)">
<circle cx="103" cy="97" r="149.5" stroke="#FFDA19"/>
<circle cx="-95.5" cy="-201.5" r="470" stroke="#FFDA19"/>
<path d="M519.504 60.7388C519.526 60.6354 519.625 60.5676 519.729 60.5852V60.5852C519.834 60.603 519.906 60.7014 519.891 60.8069L517.729 75.7898L514.827 90.647C514.806 90.7516 514.706 90.8208 514.601 90.8029V90.8029C514.497 90.7853 514.425 90.6884 514.439 90.5837L516.415 75.5669L519.504 60.7388Z" fill="#FFDA19"/>
<path d="M502.133 73.2465C502.03 73.225 501.962 73.1255 501.98 73.0214V73.0214C501.997 72.9164 502.096 72.8447 502.201 72.8599L517.184 75.0213L532.041 77.9241C532.146 77.9445 532.215 78.0446 532.197 78.1497V78.1497C532.18 78.2538 532.083 78.3253 531.978 78.3115L516.961 76.3351L502.133 73.2465Z" fill="#FFDA19"/>
<path d="M517.673 75.2434C790.114 -82.5452 872.706 -127.263 1153.72 -18.4727" stroke="#FFDA19"/>
<path d="M593.73 46.8731C593.728 46.7675 593.811 46.6799 593.917 46.6748V46.6748C594.023 46.6697 594.114 46.7503 594.122 46.8566L595.226 61.9543L595.58 77.0882C595.583 77.1948 595.5 77.2838 595.393 77.289V77.289C595.288 77.2941 595.197 77.2148 595.188 77.1096L593.895 62.0185L593.73 46.8731Z" fill="#FFDA19"/>
<path d="M579.448 62.8176C579.342 62.8188 579.255 62.7362 579.25 62.6307V62.6307C579.244 62.5243 579.325 62.4332 579.431 62.4254L594.529 61.3208L609.663 60.9672C609.77 60.9647 609.859 61.0477 609.864 61.1541V61.1541C609.869 61.2596 609.79 61.3502 609.684 61.3592L594.593 62.6518L579.448 62.8176Z" fill="#FFDA19"/>
<path d="M595.054 61.4322C827.282 -151.151 898.352 -212.553 1196.16 -166.61" stroke="#FFDA19"/>
</g>
</svg>
