<svg width="54" height="54" viewBox="0 0 54 54" fill="none" xmlns="http://www.w3.org/2000/svg">
<ellipse cx="27.3332" cy="26.6342" rx="26.6667" ry="26.6342" fill="#FFDA19"/>
<g clip-path="url(#clip0_246_242)">
<path d="M26.8333 8.39502C17.1703 8.39502 9.33325 16.2306 9.33325 25.895C9.33325 33.6271 14.347 40.1867 21.3018 42.5011C22.1753 42.6629 22.4583 42.1204 22.4583 41.6596V38.4017C17.5903 39.4604 16.5768 36.3367 16.5768 36.3367C15.7805 34.314 14.6328 33.7759 14.6328 33.7759C13.0447 32.6894 14.7539 32.7127 14.7539 32.7127C16.5112 32.8352 17.4358 34.5167 17.4358 34.5167C18.9962 37.1913 21.5293 36.4184 22.5283 35.9706C22.6843 34.8404 23.1378 34.0675 23.6395 33.6315C19.753 33.1867 15.6668 31.6861 15.6668 24.9821C15.6668 23.0702 16.3508 21.5098 17.4693 20.2848C17.2885 19.8429 16.6891 18.0623 17.6399 15.6531C17.6399 15.6531 19.1099 15.1836 22.4539 17.4469C23.8495 17.059 25.3458 16.865 26.8333 16.8577C28.3208 16.865 29.8185 17.059 31.217 17.4469C34.558 15.1836 36.0251 15.6531 36.0251 15.6531C36.9774 18.0638 36.378 19.8444 36.1972 20.2848C37.3201 21.5098 37.9983 23.0717 37.9983 24.9821C37.9983 31.7036 33.9047 33.1838 30.008 33.6169C30.6351 34.1594 31.2083 35.224 31.2083 36.8573V41.6596C31.2083 42.1248 31.4883 42.6717 32.3764 42.4996C39.3253 40.1823 44.3333 33.6242 44.3333 25.895C44.3333 16.2306 36.4976 8.39502 26.8333 8.39502Z" fill="#07082E"/>
</g>
<defs>
<clipPath id="clip0_246_242">
<rect width="35" height="35" fill="white" transform="translate(9.33325 8.39502)"/>
</clipPath>
</defs>
</svg>
