<svg width="40" height="26" viewBox="0 0 40 26" fill="none" xmlns="http://www.w3.org/2000/svg">
<path d="M35.2016 6.61702C35.458 7.22848 35.3229 7.9988 34.801 8.89197C34.2808 9.78238 33.3906 10.768 32.1928 11.7873C29.7985 13.8249 26.202 15.9749 21.9704 17.7492C17.7388 19.5236 13.6844 20.5817 10.5529 20.8611C8.98631 21.0009 7.65941 20.9449 6.65967 20.6919C5.65683 20.438 5.01272 19.9944 4.75633 19.383C4.49995 18.7715 4.63504 18.0012 5.15694 17.108C5.67722 16.2176 6.56739 15.232 7.7652 14.2126C10.1595 12.1751 13.756 10.0251 17.9876 8.25074C22.2192 6.47639 26.2736 5.41829 29.405 5.1389C30.9717 4.99912 32.2986 5.05507 33.2983 5.30813C34.3011 5.56196 34.9452 6.00557 35.2016 6.61702Z" stroke="#FFDA19" stroke-width="0.3"/>
<path d="M37.4682 5.6667C37.7663 6.37772 37.6076 7.2695 37.0072 8.29703C36.4084 9.32181 35.3849 10.4547 34.0093 11.6253C31.2597 13.9653 27.1304 16.4336 22.2729 18.4704C17.4155 20.5071 12.7607 21.7221 9.16434 22.043C7.36527 22.2035 5.83985 22.1394 4.68924 21.8482C3.53554 21.5562 2.78824 21.0443 2.49011 20.3333C2.19197 19.6222 2.35071 18.7305 2.95112 17.7029C3.54991 16.6782 4.57345 15.5453 5.94897 14.3747C8.69864 12.0346 12.8279 9.56637 17.6854 7.52961C22.5428 5.49284 27.1976 4.27788 30.794 3.95701C32.593 3.79649 34.1185 3.86055 35.2691 4.15179C36.4228 4.44382 37.1701 4.95568 37.4682 5.6667Z" stroke="#FFDA19" stroke-width="0.3"/>
<circle cx="19.9792" cy="11.4858" r="11.2068" fill="#07082E" stroke="#FFDA19" stroke-width="0.3"/>
<path d="M22.7911 21.7085C23.0929 21.8858 23.3421 22.0229 23.521 22.1182C21.1505 22.9079 18.5801 22.8836 16.22 22.0433C13.751 21.1641 11.6681 19.4474 10.3337 17.1917C8.99929 14.936 8.49767 12.2839 8.91606 9.69665C9.3188 7.20619 10.5495 4.92743 12.4047 3.22618C12.4216 3.38683 12.4469 3.60925 12.4825 3.88489C12.5605 4.4897 12.6883 5.35097 12.8872 6.37825C13.285 8.43199 13.968 11.1531 15.1093 13.8162C16.2597 16.5005 18.4461 18.6163 20.3341 20.0574C21.2795 20.779 22.1534 21.3339 22.7911 21.7085Z" fill="#07082E" stroke="#FFDA19" stroke-width="0.3"/>
<path d="M13.0891 20.3978C19.9683 18.1966 24.0754 16.4239 31.2601 12.448" stroke="#FFDA19" stroke-width="0.3"/>
<path d="M14.1248 21.0804C20.6288 19.0433 24.5024 17.3728 31.2602 13.5837" stroke="#FFDA19" stroke-width="0.3"/>
</svg>
