<svg width="1920" height="1667" viewBox="0 0 1920 1667" fill="none" xmlns="http://www.w3.org/2000/svg">
<path d="M0 0H1920C1920 1344.21 0 951.555 0 1667V1397.25V0Z" fill="#07082E"/>
<path d="M1238.16 -21.7456C1350.94 277.178 1199.42 611.177 899.716 724.256C600.01 837.335 265.625 686.67 152.841 387.746C40.0564 88.8216 191.578 -245.177 491.284 -358.256C790.99 -471.335 1125.38 -320.67 1238.16 -21.7456Z" stroke="#FFDA19" stroke-width="3"/>
<path d="M928.792 284.77C987.727 440.973 908.55 615.508 751.934 674.599C595.318 733.69 420.583 654.957 361.647 498.754C302.712 342.551 381.889 168.016 538.505 108.925C695.121 49.8336 869.856 128.567 928.792 284.77Z" stroke="#FFDA19" stroke-width="3"/>
<circle cx="972.686" cy="-118.363" r="998.5" transform="rotate(-20.6715 972.686 -118.363)" stroke="#FFDA19" stroke-width="3"/>
<circle cx="843.519" cy="807.799" r="60.2081" transform="rotate(-20.6715 843.519 807.799)" stroke="#FFDA19" stroke-width="3"/>
<path d="M889.629 320.173C893.824 331.291 891.365 344.555 882.856 359.205C874.355 373.842 859.93 389.649 840.634 405.664C802.056 437.683 744.278 470.313 676.442 495.908C608.606 521.503 543.674 535.171 493.559 536.615C468.494 537.338 447.222 534.999 431.171 529.626C415.106 524.247 404.498 515.914 400.304 504.796C396.109 493.678 398.568 480.414 407.076 465.764C415.577 451.127 430.003 435.32 449.298 419.306C487.877 387.286 545.654 354.656 613.491 329.061C681.327 303.466 746.259 289.798 796.373 288.354C821.438 287.631 842.71 289.97 858.761 295.344C874.827 300.722 885.434 309.055 889.629 320.173Z" stroke="#FFDA19" stroke-width="3"/>
</svg>
