<svg width="110" height="110" viewBox="0 0 110 110" fill="none" xmlns="http://www.w3.org/2000/svg">
<circle cx="55" cy="55" r="55" fill="#FFDA19"/>
<path d="M49.7245 47.85C49.6337 51.8875 60.9513 51.895 60.8126 47.85V45.4575C60.4823 41.64 50.0423 41.6175 49.7573 45.455H49.7245V47.85ZM55.3026 44.3975C57.2292 44.3975 58.7952 45.0375 58.7952 45.8225C58.7952 46.6075 57.2292 47.2475 55.3026 47.2475C53.376 47.2475 51.81 46.6075 51.81 45.8225C51.81 45.0375 53.376 44.3975 55.3026 44.3975ZM72.4126 41.77V39.3775C72.0797 35.56 61.6423 35.5375 61.3573 39.375H61.322V41.77C61.2337 45.81 72.5513 45.8175 72.4126 41.77ZM63.41 39.745C63.41 38.96 64.976 38.32 66.9026 38.32C68.8292 38.32 70.3952 38.96 70.3952 39.745C70.3952 40.53 68.8292 41.17 66.9026 41.17C64.976 41.17 63.41 40.53 63.41 39.745V39.745ZM84 40.355V70.8175L56.2609 85V54.65L81.1353 41.675L54.9924 27.8825L28.9403 41.515L53.7391 54.59V85L26 70.815V40.195L26.0227 40.2075L26 40.16L55 25L84 40.355V40.355ZM38.1346 39.375H38.0993V41.77C38.0085 45.8075 49.3236 45.815 49.1874 41.77V39.3775C48.857 35.56 38.417 35.54 38.1346 39.375V39.375ZM47.17 39.7425C47.17 40.5275 45.604 41.17 43.6774 41.17C41.7483 41.17 40.1848 40.53 40.1848 39.7425C40.1848 38.9575 41.7483 38.3175 43.6774 38.3175C45.6015 38.3175 47.17 38.9575 47.17 39.7425ZM60.8151 36.015V33.6225C60.4823 29.8025 50.0448 29.7825 49.7598 33.62H49.7245V36.015C49.6337 40.0525 60.9538 40.06 60.8151 36.015ZM55.3051 32.5625C57.2292 32.5625 58.7977 33.2025 58.7977 33.9875C58.7977 34.7725 57.2292 35.415 55.3051 35.415C53.376 35.415 51.8125 34.775 51.8125 33.9875C51.8125 33.2 53.376 32.5625 55.3051 32.5625V32.5625Z" fill="black"/>
</svg>
