<svg width="110" height="110" viewBox="0 0 110 110" fill="none" xmlns="http://www.w3.org/2000/svg">
<circle cx="55" cy="55" r="55" fill="#FFDA19"/>
<path d="M38.9199 63H24.4424C24.2145 63 24.0029 62.9593 23.8076 62.8779C23.6123 62.7965 23.4414 62.6867 23.2949 62.5483C23.1566 62.4019 23.0467 62.231 22.9653 62.0356C22.884 61.8403 22.8433 61.6287 22.8433 61.4009V45.4951H26.0171V59.8262H38.9199V63ZM55.2529 58.5444C55.2529 59.0897 55.1838 59.582 55.0454 60.0215C54.9071 60.4528 54.724 60.8353 54.4961 61.1689C54.2682 61.4945 54.0037 61.7752 53.7026 62.0112C53.4015 62.2391 53.0841 62.4263 52.7505 62.5728C52.425 62.7192 52.0913 62.8291 51.7495 62.9023C51.4159 62.9674 51.0985 63 50.7974 63H45.0723C44.6328 63 44.1527 62.9227 43.6318 62.7681C43.111 62.6134 42.6268 62.3612 42.1792 62.0112C41.7397 61.6532 41.3695 61.1934 41.0684 60.6318C40.7754 60.0622 40.6289 59.3664 40.6289 58.5444V54.2476C40.6289 53.4338 40.7754 52.7461 41.0684 52.1846C41.3695 51.6149 41.7397 51.1551 42.1792 50.8052C42.6268 50.4471 43.111 50.1908 43.6318 50.0361C44.1527 49.8815 44.6328 49.8042 45.0723 49.8042H50.7974C51.6112 49.8042 52.3029 49.9507 52.8726 50.2437C53.4422 50.5366 53.902 50.9069 54.252 51.3545C54.6019 51.7939 54.8542 52.2741 55.0088 52.7949C55.1715 53.3158 55.2529 53.8 55.2529 54.2476V58.5444ZM52.0791 54.272C52.0791 53.8325 51.9692 53.507 51.7495 53.2954C51.5298 53.0838 51.2124 52.978 50.7974 52.978H45.0967C44.6735 52.978 44.3521 53.0879 44.1323 53.3076C43.9126 53.5192 43.8027 53.8325 43.8027 54.2476V58.5444C43.8027 58.9595 43.9126 59.2769 44.1323 59.4966C44.3521 59.7163 44.6735 59.8262 45.0967 59.8262H50.7974C51.2287 59.8262 51.5501 59.7163 51.7617 59.4966C51.9733 59.2769 52.0791 58.9595 52.0791 58.5444V54.272ZM72.3184 64.2695C72.3184 64.8148 72.2492 65.3031 72.1108 65.7344C71.9725 66.1738 71.7894 66.5563 71.5615 66.8818C71.3337 67.2155 71.0692 67.4963 70.7681 67.7241C70.467 67.9601 70.1496 68.1514 69.8159 68.2979C69.4904 68.4443 69.1567 68.5501 68.8149 68.6152C68.4813 68.6885 68.1639 68.7251 67.8628 68.7251H62.1377V65.5513H67.8628C68.2941 65.5513 68.6156 65.4414 68.8271 65.2217C69.0387 65.002 69.1445 64.6846 69.1445 64.2695V54.2476C69.1445 53.8325 69.0387 53.5192 68.8271 53.3076C68.6156 53.0879 68.2941 52.978 67.8628 52.978H62.1377C61.7471 52.978 61.4378 53.1001 61.21 53.3442C60.9821 53.5802 60.8682 53.8813 60.8682 54.2476V58.5444C60.8682 58.9595 60.978 59.2769 61.1978 59.4966C61.4175 59.7163 61.7389 59.8262 62.1621 59.8262H67.8628V63H62.1377C61.8366 63 61.5192 62.9674 61.1855 62.9023C60.8519 62.8291 60.5182 62.7192 60.1846 62.5728C59.859 62.4263 59.5457 62.2391 59.2446 62.0112C58.9435 61.7752 58.679 61.4945 58.4512 61.1689C58.2233 60.8353 58.0402 60.4528 57.9019 60.0215C57.7635 59.582 57.6943 59.0897 57.6943 58.5444V54.2476C57.6943 53.9465 57.7269 53.6291 57.792 53.2954C57.8652 52.9618 57.9751 52.6322 58.1216 52.3066C58.2681 51.973 58.4552 51.6556 58.6831 51.3545C58.9191 51.0534 59.1999 50.7889 59.5254 50.561C59.859 50.3332 60.2415 50.1501 60.6729 50.0117C61.1042 49.8734 61.5924 49.8042 62.1377 49.8042H67.8628C68.1639 49.8042 68.4813 49.8408 68.8149 49.9141C69.1567 49.9792 69.4904 50.085 69.8159 50.2314C70.1496 50.3779 70.467 50.5692 70.7681 50.8052C71.0692 51.033 71.3337 51.3138 71.5615 51.6475C71.7894 51.973 71.9725 52.3514 72.1108 52.7827C72.2492 53.214 72.3184 53.7023 72.3184 54.2476V64.2695ZM89.5791 58.5444C89.5791 59.0897 89.5099 59.582 89.3716 60.0215C89.2332 60.4528 89.0501 60.8353 88.8223 61.1689C88.5944 61.4945 88.3299 61.7752 88.0288 62.0112C87.7277 62.2391 87.4103 62.4263 87.0767 62.5728C86.7511 62.7192 86.4175 62.8291 86.0757 62.9023C85.742 62.9674 85.4246 63 85.1235 63H79.3984C78.959 63 78.4788 62.9227 77.958 62.7681C77.4372 62.6134 76.953 62.3612 76.5054 62.0112C76.0659 61.6532 75.6956 61.1934 75.3945 60.6318C75.1016 60.0622 74.9551 59.3664 74.9551 58.5444V54.2476C74.9551 53.4338 75.1016 52.7461 75.3945 52.1846C75.6956 51.6149 76.0659 51.1551 76.5054 50.8052C76.953 50.4471 77.4372 50.1908 77.958 50.0361C78.4788 49.8815 78.959 49.8042 79.3984 49.8042H85.1235C85.9373 49.8042 86.6291 49.9507 87.1987 50.2437C87.7684 50.5366 88.2282 50.9069 88.5781 51.3545C88.9281 51.7939 89.1803 52.2741 89.335 52.7949C89.4977 53.3158 89.5791 53.8 89.5791 54.2476V58.5444ZM86.4053 54.272C86.4053 53.8325 86.2954 53.507 86.0757 53.2954C85.856 53.0838 85.5386 52.978 85.1235 52.978H79.4229C78.9997 52.978 78.6782 53.0879 78.4585 53.3076C78.2388 53.5192 78.1289 53.8325 78.1289 54.2476V58.5444C78.1289 58.9595 78.2388 59.2769 78.4585 59.4966C78.6782 59.7163 78.9997 59.8262 79.4229 59.8262H85.1235C85.5549 59.8262 85.8763 59.7163 86.0879 59.4966C86.2995 59.2769 86.4053 58.9595 86.4053 58.5444V54.272ZM94.938 61.4009C94.938 61.6206 94.8932 61.8281 94.8037 62.0234C94.7223 62.2106 94.6084 62.3774 94.4619 62.5239C94.3236 62.6623 94.1567 62.7721 93.9614 62.8535C93.7743 62.9349 93.5749 62.9756 93.3633 62.9756C93.1436 62.9756 92.936 62.9349 92.7407 62.8535C92.5535 62.7721 92.3867 62.6623 92.2402 62.5239C92.1019 62.3774 91.992 62.2106 91.9106 62.0234C91.8293 61.8281 91.7886 61.6206 91.7886 61.4009C91.7886 61.1893 91.8293 60.9899 91.9106 60.8027C91.992 60.6074 92.1019 60.4406 92.2402 60.3022C92.3867 60.1558 92.5535 60.0418 92.7407 59.9604C92.936 59.8709 93.1436 59.8262 93.3633 59.8262C93.5749 59.8262 93.7743 59.8709 93.9614 59.9604C94.1567 60.0418 94.3236 60.1558 94.4619 60.3022C94.6084 60.4406 94.7223 60.6074 94.8037 60.8027C94.8932 60.9899 94.938 61.1893 94.938 61.4009Z" fill="#07082E"/>
</svg>
