<svg width="40" height="40" viewBox="0 0 40 40" fill="none" xmlns="http://www.w3.org/2000/svg">
<path d="M20.06 8.89833C14.0017 8.89833 9.075 13.825 9.07167 19.88C9.07 22.3517 9.795 24.2033 11.0117 26.14L9.90167 30.1933L14.0583 29.1033C15.92 30.2083 17.6983 30.8717 20.05 30.8717C26.1033 30.8717 31.035 25.945 31.0367 19.8883C31.0417 13.82 26.1333 8.9 20.06 8.89833ZM26.52 24.6033C26.245 25.375 24.925 26.0783 24.2917 26.1733C23.7233 26.2583 23.0033 26.2933 22.2117 26.0433C21.7317 25.8917 21.1167 25.6883 20.33 25.3483C17.0183 23.9183 14.855 20.5833 14.69 20.3633C14.525 20.1433 13.3417 18.5733 13.3417 16.9483C13.3417 15.3233 14.195 14.525 14.4967 14.1933C14.8 13.86 15.1567 13.7767 15.3767 13.7767L16.01 13.7883C16.2133 13.7983 16.485 13.7117 16.7533 14.355C17.0283 15.0167 17.6883 16.6417 17.7717 16.8067C17.8533 16.9717 17.91 17.165 17.7983 17.385C17.6883 17.605 17.6333 17.7433 17.4683 17.935L16.9733 18.5133C16.8083 18.6783 16.6367 18.8567 16.8283 19.1867C17.0217 19.5167 17.6833 20.5983 18.665 21.4733C19.9267 22.5983 20.99 22.9467 21.32 23.1117C21.65 23.2767 21.8433 23.25 22.035 23.0283C22.2283 22.8083 22.86 22.065 23.08 21.7333C23.3 21.4017 23.52 21.4583 23.8233 21.5683C24.1267 21.6783 25.75 22.4767 26.08 22.6433C26.41 22.8083 26.63 22.8917 26.7133 23.0283C26.795 23.17 26.795 23.8317 26.52 24.6033ZM31.6667 0H8.33333C3.73167 0 0 3.73167 0 8.33333V31.6667C0 36.2683 3.73167 40 8.33333 40H31.6667C36.27 40 40 36.2683 40 31.6667V8.33333C40 3.73167 36.27 0 31.6667 0ZM20.055 33.1033C17.8433 33.1033 15.665 32.5483 13.735 31.495L6.73 33.3333L8.605 26.4867C7.44833 24.4833 6.84 22.21 6.84167 19.88C6.845 12.5933 12.7717 6.66667 20.055 6.66667C23.59 6.66833 26.9083 8.045 29.4033 10.5417C31.8983 13.0383 33.2717 16.36 33.27 19.89C33.2667 27.1767 27.3383 33.1033 20.055 33.1033Z" fill="#FFDA19"/>
</svg>
