<svg width="240" height="926" viewBox="0 0 240 926" fill="none" xmlns="http://www.w3.org/2000/svg">
<rect width="152" height="926" fill="#FFDA19"/>
<rect width="92" height="783" transform="matrix(-1 0 0 1 240 143)" fill="#FFDA19"/>
<path d="M373 11.5C373 106.217 296.217 183 201.5 183C106.783 183 30 106.217 30 11.5C30 -83.2168 106.783 -160 201.5 -160C296.217 -160 373 -83.2168 373 11.5ZM154.88 11.5C154.88 37.2475 175.752 58.12 201.5 58.12C227.248 58.12 248.12 37.2475 248.12 11.5C248.12 -14.2475 227.248 -35.12 201.5 -35.12C175.752 -35.12 154.88 -14.2475 154.88 11.5Z" fill="#FFDA19"/>
</svg>
