<svg width="428" height="522" viewBox="0 0 428 522" fill="none" xmlns="http://www.w3.org/2000/svg">
<circle cx="191.566" cy="209.569" r="124.5" stroke="#FFDA19"/>
<circle cx="137.566" cy="364.569" r="38.5" stroke="#FFDA19"/>
<circle cx="121.648" cy="115.648" r="289.5" transform="rotate(36.5291 121.648 115.648)" stroke="#FFDA19"/>
<path d="M296.102 166.836C297.907 171.621 296.841 177.31 293.21 183.561C289.582 189.808 283.431 196.545 275.215 203.365C258.786 217 234.19 230.89 205.317 241.784C176.444 252.677 148.803 258.497 127.461 259.112C116.788 259.42 107.72 258.425 100.87 256.131C94.0145 253.836 89.4563 250.27 87.6509 245.485C85.8455 240.7 86.9118 235.011 90.5424 228.76C94.1704 222.513 100.321 215.776 108.538 208.956C124.966 195.321 149.563 181.431 178.436 170.537C207.308 159.644 234.95 153.824 256.291 153.209C266.964 152.901 276.033 153.896 282.883 156.19C289.738 158.485 294.296 162.051 296.102 166.836Z" stroke="#FFDA19"/>
</svg>
